<svg
  aria-hidden="true"
  style="position:absolute;width:0;height:0;overflow:hidden"
  xmlns="http://www.w3.org/2000/svg">
    <defs>
      <symbol id="icon-menu" viewBox="0 0 56 32">
        <path d="M1.882.941h52.706a1.882 1.882 0 1 1 0 3.764H1.882a1.882 1.882 0 1 1 0-3.764zM1.882 14.118h52.706a1.882 1.882 0 1 1 0 3.764H1.882a1.882 1.882 0 1 1 0-3.764zM1.882 27.294h52.706a1.882 1.882 0 1 1 0 3.764H1.882a1.882 1.882 0 1 1 0-3.764z"/>
      </symbol>
      <symbol id="icon-close" viewBox="0 0 32 32">
        <path
          d="M18.228 16l13.102-13.1c0.25-0.278 0.403-0.648 0.403-1.054 0-0.872-0.707-1.579-1.579-1.579-0.406 0-0.777 0.154-1.057 0.406l0.001-0.001-13.102 13.1-13.095-13.116c-0.291-0.313-0.705-0.509-1.165-0.509-0.877 0-1.588 0.711-1.588 1.588 0 0.459 0.195 0.872 0.506 1.162l0.001 0.001 13.116 13.102-13.116 13.1c-0.343 0.292-0.558 0.723-0.558 1.205 0 0.873 0.708 1.58 1.58 1.58 0.482 0 0.914-0.216 1.204-0.556l0.002-0.002 13.116-13.1 13.1 13.102c0.274 0.236 0.634 0.38 1.028 0.38 0.873 0 1.58-0.708 1.58-1.58 0-0.394-0.144-0.754-0.382-1.031l0.002 0.002-13.1-13.1z"
        />
      </symbol>
      <symbol id="icon-heart" viewBox="0 0 36 32">
        <path
          fill="#fd5103"
          style="fill:var(--color1, #fd5103)"
          d="m17.684 32-2.565-2.302C6.012 21.555 0 16.186 0 9.592 0 4.219 4.28 0 9.726 0c3.077 0 6.029 1.413 7.958 3.645A10.636 10.636 0 0 1 25.638 0h.003c5.447 0 9.726 4.221 9.726 9.592 0 6.592-6.013 11.963-15.119 20.125l-2.565 2.284z"
        />
        <path
          d="m17.684 28.632-2.075-1.817C8.236 20.386 3.368 16.146 3.368 10.941c0-4.241 3.464-7.572 7.874-7.572 2.491 0 4.881 1.115 6.442 2.877a8.7 8.7 0 0 1 6.441-2.877h.002c4.409 0 7.874 3.331 7.874 7.572 0 5.204-4.867 9.443-12.241 15.887l-2.075 1.804z"
        />
      </symbol>
      <symbol id="icon-search" viewBox="0 0 32 32">
        <path
          fill="#fd5103"
          style="fill:var(--color1, #fd5103)"
          d="M13.474 26.947a13.336 13.336 0 0 0 8.276-2.865l-.029.022 7.404 7.404 2.381-2.381-7.404-7.404a13.306 13.306 0 0 0 2.845-8.249C26.947 6.045 20.902 0 13.473 0S-.001 6.045-.001 13.474s6.045 13.474 13.474 13.474zm0-23.579c5.573 0 10.105 4.532 10.105 10.105s-4.532 10.105-10.105 10.105S3.369 19.046 3.369 13.473 7.901 3.368 13.474 3.368z"
        />
      </symbol>
      <symbol id="icon-vector" viewBox="0 0 52 32">
        <path
          d="m27.761 28.887 23.171-24.32c.372-.391.601-.921.601-1.504s-.229-1.113-.602-1.505l.001.001-.029-.029c-.366-.385-.883-.624-1.455-.624s-1.088.239-1.454.623l-.001.001-21.818 22.906L4.366 1.533C4 1.148 3.483.909 2.911.909s-1.088.239-1.454.623l-.001.001-.032.026c-.373.391-.603.921-.603 1.505s.23 1.115.603 1.506l-.001-.001 23.174 24.32a2.178 2.178 0 0 0 3.159.001l.001-.001z"
        />
      </symbol>
      <symbol id="icon-chevron-down" viewBox="0 0 32 32">
          <path d="m7.791 12.791 7.543 7.543 7.543-7.543-.943-.943-6.6 6.6-6.6-6.6-.943.943z" />
          <path d="m7.791 12.792 7.543 7.541 7.543-7.543-.943-.943-6.6 6.6-6.6-6.6-.943.943z" />
      </symbol>
      <symbol id="icon-light" viewBox="0 0 64 32">
        <path
          fill="#fff"
          style="fill:var(--color1, #fff)"
          d="M16 .483h31.998C56.568.483 63.515 7.43 63.515 16v-.002c0 8.57-6.947 15.517-15.517 15.517H16C7.43 31.515.483 24.568.483 15.998V16C.483 7.43 7.43.483 16 .483z"
        />
        <path
          fill="#fd5103"
          style="fill:var(--color2, #fd5103)"
          d="M27.2 16c0 7.069-5.731 12.8-12.8 12.8S1.6 23.069 1.6 16c0-7.069 5.731-12.8 12.8-12.8S27.2 8.931 27.2 16z"
        />
        <path
          fill="none"
          stroke="#fd5103"
          style="stroke:var(--color2, #fd5103)"
          stroke-width=".968"
          d="M16 .483h31.998C56.568.483 63.515 7.43 63.515 16v-.002c0 8.57-6.947 15.517-15.517 15.517H16C7.43 31.515.483 24.568.483 15.998V16C.483 7.43 7.43.483 16 .483z"
        />
      </symbol>
      <symbol id="icon-dark" viewBox="0 0 64 32">
        <path
          fill="#fd5103"
          style="fill:var(--color2, #fd5103)"
          d="M16 .8h32C56.395.8 63.2 7.605 63.2 16S56.395 31.2 48 31.2H16C7.605 31.2.8 24.395.8 16S7.605.8 16 .8z"
        />
        <path
          fill="#fff"
          style="fill:var(--color1, #fff)"
          d="M60.8 16c0 7.069-5.731 12.8-12.8 12.8S35.2 23.069 35.2 16c0-7.069 5.731-12.8 12.8-12.8S60.8 8.931 60.8 16z"
        />
        <path
          fill="none"
          stroke="#fff"
          style="stroke:var(--color1, #fff)"
          stroke-width="1.6"
          d="M16 .8h32C56.395.8 63.2 7.605 63.2 16S56.395 31.2 48 31.2H16C7.605 31.2.8 24.395.8 16S7.605.8 16 .8z"
        />
      </symbol>
      <symbol id="icon-noResults" viewBox="0 0 29 32">
        <path
          fill="#fd5103"
          style="fill: var(--color1, #fd5103)"
          d="M26.994 8.196c-2.502-3.691-8.789-9.54-18.353-5.771s-8.474 10.301-8.047 12.829c0.427 2.528 0.993 5.807 4.742 8.258s7.944 2.52 12.431 2.307c4.487-0.213 9.644-2.803 10.633-6.306s1.097-7.625-1.405-11.316z"
        />
        <path
          fill="#f2f0eb"
          style="fill: var(--color2, #f2f0eb)"
          d="M12.903 8.341s-0.975 0.619-0.93 0.73c0.044 0.111 0.288 0.486 0.288 0.486s0.696 1.342 1.595 1.591c1.196 0.332 1.661-0.332 2.038-1.017s0.443-5.327 0.31-5.394c-0.133-0.066-0.842 0.309-1.063 1.238s-0.399 2.763-0.532 2.874c-0.133 0.111-1.262-0.221-1.262-0.221l-0.443-0.287z"
        />
        <path
          fill="#f5aa8a"
          style="fill: var(--color3, #f5aa8a)"
          d="M10.268 8.010s-0.738-0.118-0.738 0.118 0.236 0.324 0.384 0.324c0.148 0 0.148 0.147 0.413 0.147s0.502 0.088 0.886 0.059c0.384-0.029 0.797 0.265 0.797 0.265s0.148 0.332 0.672-0.007c0.144-0.093 0.266-0.221 0.244-0.376s-0.19-0.681-0.325-0.796c-0.207-0.177-2.333 0.265-2.333 0.265z"
        />
        <path
          fill="#93b3c5"
          style="fill: var(--color4, #93b3c5)"
          d="M10.998 8.37c1.58 0 2.861-0.261 2.861-0.583s-1.281-0.583-2.861-0.583-2.861 0.261-2.861 0.583 1.281 0.583 2.861 0.583z"
        />
        <path
          fill="#a1c4da"
          style="fill: var(--color5, #a1c4da)"
          d="M12.903 5.652c-0.854-0.677-1.905-0.59-1.905-0.59s-1.051-0.087-1.905 0.59c-0.854 0.677-0.788 2.076-0.788 2.076s0.54 0.437 2.693 0.437 2.693-0.437 2.693-0.437 0.066-1.399-0.788-2.076z"
        />
        <path
          fill="#b3d9ed"
          style="fill: var(--color6, #b3d9ed)"
          d="M12.264 5.502c-0.365-0.255-0.738-0.382-1.067-0.442-0.023-0.001-0.050-0.001-0.078-0.001-0.018 0-0.037 0-0.055 0.001l0.003-0c0.261 0.125 0.485 0.28 0.68 0.466l-0.001-0.001c0.875 0.83 0.807 2.543 0.807 2.543l-0.001 0.001c0.45-0.066 0.738-0.153 0.912-0.223-0.069-0.423-0.347-1.747-1.2-2.342z"
        />
        <path
          fill="#b3d9ed"
          style="fill: var(--color6, #b3d9ed)"
          d="M11.072 5.059c-0.047 0.001-0.074 0.003-0.074 0.003s-0.009-0.001-0.026-0.002c0.074 0.1 0.144 0.214 0.206 0.334l0.007 0.015c0.427 0.829 0.405 2.231 0.38 2.745 0.164-0.007 0.303-0.015 0.442-0.026l-0.040 0.002c-0.015-0.577-0.104-1.942-0.582-2.682-0.103-0.159-0.209-0.286-0.315-0.39z"
        />
        <path
          fill="#93b3c5"
          style="fill: var(--color4, #93b3c5)"
          d="M11.167 4.963c0-0.235-0.032-0.425-0.169-0.425s-0.169 0.19-0.169 0.424c0 0.093-0.003 0.178 0.005 0.248 0.052 0.008 0.107 0.013 0.164 0.013s0.111-0.005 0.164-0.013c0.008-0.070 0.005-0.155 0.005-0.248z"
        />
        <path
          fill="#63363b"
          style="fill: var(--color7, #63363b)"
          d="M15.392 25.060s0.293 0.106 0.689 0.136c0.396 0.030 0.957-0.102 0.957-0.102s0.153 0.866 0.091 1.378c-0.031 0.257-0.198 0.303-0.535 0.518-0.211 0.136-0.499 0.429-0.83 0.602-0.351 0.182-1.253 0.179-1.612 0.008-0.754-0.358-0.479-0.752-0.036-1.072 0.157-0.113 0.431-0.354 0.568-0.52 0.406-0.489 0.707-0.948 0.707-0.948z"
        />
        <path
          fill="#363b4e"
          style="fill: var(--color8, #363b4e)"
          d="M14.961 17.613c-0.014-0.91-0.11-3.298 0.055-3.67 0.142-0.321 1.398-0.707 2.005-0.421s1.064 1.284 1.064 1.284-0.055 1.394-0.264 2.247c-0.208 0.853-0.605 2.55-0.605 2.55s0.383 1.013 0.31 1.944c-0.105 1.347-0.488 3.522-0.488 3.522s-0.332 0.142-0.822 0.131c-0.524-0.011-0.844-0.103-0.844-0.103s0.017-1.362-0.14-3.035c-0.060-0.643-0.256-3.538-0.27-4.449z"
        />
        <path
          fill="#63363b"
          style="fill: var(--color7, #63363b)"
          d="M19.356 25.383s0.298 0.091 0.695 0.101c0.397 0.010 0.951-0.149 0.951-0.149s0.196 0.858 0.159 1.372c-0.019 0.258-0.183 0.313-0.508 0.544-0.204 0.146-0.478 0.454-0.799 0.642-0.342 0.199-1.243 0.241-1.61 0.088-0.771-0.32-0.516-0.728-0.089-1.069 0.151-0.121 0.413-0.375 0.542-0.548 0.381-0.509 0.659-0.981 0.659-0.981z"
        />
        <path
          fill="#363b4e"
          style="fill: var(--color8, #363b4e)"
          d="M17.832 17.756c-0.153-2.454-0.036-3.177 0.11-3.557 0.126-0.328 1.486-0.685 2.106-0.43s1.126 1.23 1.126 1.23 0.054 1.191-0.030 1.842c-0.084 0.652-0.47 2.908-0.47 2.908s0.414 0.993 0.387 1.927c-0.038 1.35-0.061 3.634-0.061 3.634s-0.324 0.158-0.815 0.172c-0.524 0.015-0.849-0.062-0.849-0.062s-0.593-1.956-0.834-3.62c-0.092-0.64-0.582-2.612-0.671-4.044z"
        />
        <path
          fill="#3e4858"
          style="fill: var(--color9, #3e4858)"
          d="M21.216 11.104c0.030-0.578-0.037-0.847 0.081-1.857 0.073-0.622 0.421-1.592 0.465-2.277s0.236-1.645-0.354-2.078c-0.59-0.433-2.446-0.743-3.166-0.749s-1.33 0.064-1.994 0.417c-0.733 0.39-0.72 1.026-0.82 2.1-0.011 0.12-0.106 1.377-0.124 1.864-0.042 1.158-0.102 2.156-0.234 2.792s-0.349 3.052-0.351 3.206c0 0 0.532 0.501 1.004 0.619s0.913 0.176 1.536 0.265c0.122 0.017 0.295-0.884 0.295-0.884l0.266 0.973s1.063 0.177 1.89 0.059c0.827-0.118 1.801-0.619 1.801-0.619s-0.325-3.254-0.295-3.831z"
        />
        <path
          fill="#f2f0eb"
          style="fill: var(--color2, #f2f0eb)"
          d="M19.558 4.563s-1.856 5.416-2.039 5.474c-0.183 0.058-0.74-2.332-0.747-3.93s0.237-1.946 0.237-1.946l2.55 0.402z"
        />
        <path
          fill="#363b4e"
          style="fill: var(--color8, #363b4e)"
          d="M17.074 8.291c0.098 1.082 0.461 1.837 0.392 1.9s-0.502-0.796-0.709-1.297c-0.137-0.333-0.416-1.359-0.48-1.834s0.293-0.972 0.293-0.972-0.258-0.367-0.229-0.685c0.029-0.318 0.146-0.888 0.238-1.018 0.155-0.221 0.554-0.31 0.554-0.31s-0.157 3.134-0.059 4.216z"
        />
        <path
          fill="#363b4e"
          style="fill: var(--color8, #363b4e)"
          d="M19.509 4.222s0.586 0.008 0.691 0.148c0.105 0.141-0.069 0.897-0.11 1.255s-0.596 0.622-0.596 0.622 0.367 0.606 0.074 1.174c-0.351 0.679-1.862 2.939-2.102 2.769-0.136-0.097 0.72-1.598 1.327-3.485 0.461-1.434 0.716-2.484 0.716-2.484z"
        />
        <path
          fill="#fff"
          style="fill: var(--color10, #fff)"
          d="M19.147 3.798s0.307 0.169 0.39 0.311c0.083 0.142 0.021 0.453 0.021 0.453s-0.185 0.531-0.401 0.767c-0.215 0.237-0.757 0.681-0.757 0.681l-0.559-0.952 1.306-1.26z"
        />
        <path
          fill="#fff"
          style="fill: var(--color10, #fff)"
          d="M17.511 3.826s-0.333 0.102-0.39 0.227c-0.058 0.125-0.109 0.49-0.109 0.49s0.023 0.361 0.074 0.589c0.057 0.253 0.275 0.779 0.275 0.779l0.521-0.761-0.371-1.325z"
        />
        <path
          fill="#a4273b"
          style="fill: var(--color11, #a4273b)"
          d="M17.732 5.047s-0.705-0.568-0.773-0.228c-0.068 0.34-0.112 0.923 0.128 0.926s0.545-0.309 0.545-0.309l0.101-0.389zM17.955 5.101s0.795-0.433 0.802-0.086c0.006 0.347-0.054 0.929-0.291 0.888s-0.481-0.401-0.481-0.401l-0.030-0.401z"
        />
        <path
          fill="#bd273b"
          style="fill: var(--color12, #bd273b)"
          d="M17.809 5.017c-0.148 0.009-0.232 0.039-0.249 0.184s-0.070 0.353 0.032 0.392c0.102 0.039 0.391 0.074 0.431-0.028s0.029-0.345 0.023-0.412-0.089-0.145-0.237-0.136z"
        />
        <path
          fill="#b77e20"
          style="fill: var(--color13, #b77e20)"
          d="M17.704 11.236c-0 0.002-0 0.005-0 0.008 0 0.081 0.066 0.146 0.146 0.146 0.078 0 0.142-0.061 0.146-0.138l0-0c0-0.002 0-0.004 0-0.006 0-0.081-0.066-0.146-0.146-0.146-0.077 0-0.141 0.060-0.146 0.136l-0 0zM17.741 12.69c-0 0.002-0 0.005-0 0.007 0 0.078 0.061 0.142 0.138 0.146h0c0.003 0 0.006 0 0.009 0 0.081 0 0.146-0.065 0.146-0.146 0-0.079-0.062-0.143-0.14-0.146h-0c-0.002-0-0.005-0-0.008-0-0.078 0-0.142 0.061-0.146 0.138l-0 0zM17.756 14.131c-0 0.002-0 0.005-0 0.008 0 0.081 0.066 0.146 0.146 0.146 0.078 0 0.142-0.061 0.146-0.138l0-0c0-0.002 0-0.005 0-0.008 0-0.078-0.061-0.142-0.138-0.146h-0c-0.002-0-0.005-0-0.008-0-0.078 0-0.142 0.061-0.146 0.138l-0 0z"
        />
        <path
          fill="#f5aa8a"
          style="fill: var(--color3, #f5aa8a)"
          d="M17.369 3.335l1.744-0.438 0.186 1.282s-0.165 0.139-0.438 0.353c-0.274 0.214-0.978 0.597-0.978 0.597s-0.291-0.341-0.404-0.471c-0.113-0.131-0.242-0.496-0.242-0.496l0.132-0.827z"
        />
        <path
          fill="#f5aa8a"
          style="fill: var(--color3, #f5aa8a)"
          d="M17.011 0.71c0.375-0.634 1.354-0.63 1.854-0.338 0.768 0.45 0.846 1.489 0.564 2.395-0.155 0.498-0.391 0.828-0.811 1.058-0.912 0.499-1.488 0.088-1.669-0.206-0.2-0.328-0.284-1.137-0.276-1.447 0.010-0.453-0.037-0.828 0.338-1.462z"
        />
        <path
          fill="#411b00"
          style="fill: var(--color14, #411b00)"
          d="M17.285 2.36c-0.005 0.083-0.074 0.145-0.153 0.139s-0.139-0.077-0.134-0.159c0.006-0.082 0.075-0.144 0.154-0.139s0.139 0.076 0.133 0.159zM18.444 2.451c-0.005 0.082-0.074 0.145-0.153 0.139s-0.139-0.076-0.133-0.159c0.006-0.082 0.075-0.145 0.154-0.139s0.139 0.076 0.133 0.158z"
        />
        <path
          fill="#592221"
          style="fill: var(--color15, #592221)"
          d="M18.803 2.036c-0.203-0.136-0.565-0.184-0.753-0.001-0.018 0.017-0.005 0.050 0.020 0.049 0.081-0.003 0.162 0.008 0.245 0.001 0.143-0.011 0.288 0.003 0.413 0.077 0.082 0.049 0.153-0.075 0.075-0.127zM16.926 2.027c0.057-0.046 0.185-0.031 0.251-0.025 0.080 0.007 0.189 0.020 0.264 0.048 0.020 0.007 0.043-0.016 0.036-0.035-0.079-0.221-0.496-0.236-0.655-0.091-0.071 0.065 0.032 0.163 0.104 0.104z"
        />
        <path
          fill="#d27d73"
          style="fill: var(--color16, #d27d73)"
          d="M17.792 3.194s-0.024-0.002-0.064-0.013c-0.060-0.017-0.112-0.040-0.16-0.071l0.002 0.001c-0.035-0.023-0.066-0.048-0.094-0.076l-0-0c-0.030-0.034-0.057-0.070-0.078-0.127-0.003-0.008-0.006-0.019-0.008-0.030l-0-0.002c-0.002-0.016-0.005-0.033-0.005-0.048 0-0.030 0.006-0.064 0.019-0.093 0.026-0.060 0.071-0.094 0.105-0.124s0.067-0.055 0.087-0.079l0.007-0.009c0.002-0.004-0.003 0.005-0.002 0.004l0-0.001 0-0.001 0.001-0.002 0.002-0.004 0.004-0.007c0.006-0.011 0.007-0.017 0.010-0.024 0.005-0.013 0.012-0.035 0.017-0.053 0.011-0.038 0.017-0.078 0.025-0.115s0.014-0.073 0.019-0.106l0.029-0.162 0.012-0.062s0.021 0.090 0.030 0.227c0.004 0.069 0.006 0.149-0.004 0.238-0.003 0.023-0.005 0.044-0.013 0.072-0.004 0.015-0.008 0.027-0.013 0.039l0.001-0.002-0.003 0.008-0.002 0.004-0.001 0.002-0 0.001-0.003 0.006-0.011 0.019c-0.030 0.050-0.070 0.082-0.102 0.112s-0.058 0.056-0.068 0.078c-0.005 0.010-0.008 0.022-0.009 0.035v0c-0.001 0.006 0.001 0.011 0 0.016 0.001 0.008 0.005 0.020 0.006 0.030 0.005 0.024 0.021 0.059 0.039 0.085 0.017 0.029 0.040 0.054 0.061 0.078 0.043 0.047 0.085 0.085 0.114 0.111l0.048 0.042z"
        />
        <path
          fill="#592221"
          style="fill: var(--color15, #592221)"
          d="M16.7 1.132c0.027-0.063-0.045-0.391 0.021-0.544s0.406-0.328 0.784-0.46c0.396-0.139 0.849-0.176 1.369-0.051s0.983 0.465 0.979 1.016c-0.003 0.463-0.072 1.234-0.17 1.273s-0.465 0.176-0.465 0.176-0.222-0.538-0.156-0.691c0.066-0.153-0.15-0.662-0.25-0.697-0.081 0.004-0.714 0.189-1.102 0.197s-0.607-0.294-0.609-0.292c0 0-0.126 0.154-0.204 0.287s-0.226 0.519-0.226 0.519-0.081-0.085-0.080-0.293c0.001-0.209 0.054-0.303 0.112-0.439z"
        />
        <path
          fill="#f5aa8a"
          style="fill: var(--color3, #f5aa8a)"
          d="M19.432 2.045c0.307-0.107 0.471 0.254 0.352 0.674-0.075 0.264-0.438 0.385-0.591 0.309 0.012-0.269-0.046-0.884 0.239-0.984z"
        />
        <path
          fill="#d3ecfe"
          style="fill: var(--color17, #d3ecfe)"
          d="M17.752 2.687c0.877 0.027 1.336-0.149 1.336-0.149s0.166 0.927-0.16 1.205c-0.306 0.26-0.843 0.454-1.346 0.35s-0.68-0.455-0.802-0.73c-0.123-0.275-0.126-0.899-0.126-0.899s0.22 0.195 1.098 0.222z"
        />
        <path
          fill="#b1d7de"
          style="fill: var(--color18, #b1d7de)"
          d="M16.777 2.679s0.26 0.202 0.891 0.228c0.664 0.027 1.31-0.198 1.31-0.198l0.018 0.172s-0.88 0.192-1.3 0.158c-0.419-0.034-0.888-0.168-0.888-0.168l-0.031-0.191zM16.852 3.199s0.241 0.149 0.832 0.173c0.623 0.025 1.296-0.195 1.296-0.195l-0.012 0.162s-0.864 0.188-1.257 0.157c-0.394-0.031-0.833-0.158-0.833-0.158l-0.027-0.139zM18.873 3.6c-0.243 0.063-0.688 0.16-1.111 0.142-0.438-0.018-0.683-0.104-0.781-0.147 0.011 0.044 0.024 0.087 0.038 0.13 0.135 0.036 0.466 0.116 0.769 0.141 0.265 0.021 0.742-0.057 1.027-0.111 0.027-0.040 0.045-0.095 0.058-0.155z"
        />
        <path
          fill="#f5aa8a"
          style="fill: var(--color3, #f5aa8a)"
          d="M17.68 11.211s-1.039-0.528-1.624-0.233c-0.584 0.295-0.82 0.701-0.869 0.883-0.1 0.367 0.131 0.334 0.131 0.334s-0.047 0.078 0.043 0.166c0.090 0.089 0.167 0.117 0.167 0.117s0.017 0.138 0.057 0.165c0.040 0.028 0.077 0.043 0.108 0.039 0.124-0.014 0.812-0.505 1.137-0.603 0.137-0.042 0.283 0.072 0.456 0.109 0.239 0.051 0.517-0.142 0.517-0.142s0.101-0.599-0.123-0.835z"
        />
        <path
          fill="#f2f0eb"
          style="fill: var(--color2, #f2f0eb)"
          d="M21.063 4.983c-0.331 0.072-0.75 0.595-0.881 1.541s-0.431 2.771-0.465 2.949c-0.034 0.178-0.473 0.406-0.845 0.634-0.211 0.129-0.94 0.68-0.94 0.68l-0.484 0.185s0.163 0.439 0.233 0.659c0.070 0.22 0.099 0.595 0.099 0.595l0.441-0.113s0.785-0.078 1.216-0.181c0.794-0.191 2-0.485 2.227-0.99s0.367-2.659 0.442-3.412c0.076-0.753-0.054-1.834-0.237-2.14s-0.473-0.478-0.804-0.406z"
        />
        <path
          fill="#dcd8da"
          style="fill: var(--color19, #dcd8da)"
          d="M18.657 11.724c0 0.001 0 0.001 0 0.002 0 0.060-0.049 0.11-0.109 0.11h-0c-0.002 0-0.004 0-0.006 0-0.061 0-0.111-0.050-0.111-0.111s0.049-0.111 0.111-0.111c0.001 0 0.001 0 0.002 0h-0c0.001 0 0.001-0 0.002-0 0.060 0 0.109 0.048 0.11 0.108v0z"
        />
        <path
          fill="#e9dbda"
          style="fill: var(--color20, #e9dbda)"
          d="M18.278 10.758c0.18 0.144 0.652 0.136 0.612 1.227s-0.096 2.949-0.146 3.451c-0.050 0.502-0.16 0.946 0.077 1.001s0.44-0.155 0.44-0.155 0.181 0.233 0.565 0.196c0.383-0.036 0.438-0.302 0.674-0.307s0.382-0.125 0.526-0.333c0.144-0.209 0.237-1.625 0.224-2.392s-0.226-2.767-0.618-3.232c-0.392-0.465-0.971-0.609-1.104-0.629s-0.238 0.109-0.556 0.275c-0.084 0.044-0.262 0.24-0.262 0.24s-0.324 0.065-0.469 0.215c-0.145 0.15-0.142 0.297 0.037 0.441z"
        />
        <path
          fill="#433431"
          style="fill: var(--color21, #433431)"
          d="M1.232 25.29c-0.075 0.824-0.488 2.848-0.601 3.26-0.099 0.363-0.188 0.599 0.188 0.562s0.451-0.112 0.676-0.749c0.225-0.637 0.543-2.288 0.676-3.147 0.15-0.974 0.225-3.597 0.225-3.597h-1.014c0-0-0.075 2.848-0.15 3.672zM5.052 20.569c-0.022 0.778-0.082 2.685-0.141 3.335-0.075 0.824-0.488 2.848-0.601 3.26-0.099 0.363-0.188 0.599 0.188 0.562s0.451-0.112 0.676-0.749c0.225-0.637 0.543-2.289 0.676-3.148 0.117-0.759 0.188-2.52 0.214-3.26h-1.012zM8.054 25.29c-0.075-0.824-0.15-3.672-0.15-3.672h-1.014s0.075 2.623 0.225 3.597c0.132 0.859 0.451 2.511 0.676 3.148s0.3 0.712 0.676 0.749c0.375 0.038 0.287-0.199 0.188-0.562-0.113-0.412-0.526-2.436-0.601-3.26zM10.795 23.904c-0.059-0.65-0.118-2.557-0.141-3.335h-1.012c0.026 0.74 0.097 2.501 0.214 3.26 0.132 0.859 0.451 2.511 0.676 3.148s0.3 0.712 0.676 0.749c0.376 0.038 0.287-0.199 0.188-0.562-0.113-0.412-0.526-2.436-0.601-3.26z"
        />
        <path
          fill="#563e3e"
          style="fill: var(--color22, #563e3e)"
          d="M3.71 12.825s-2.29-0.125-2.853 0c-0.404 0.090-1.051 0.25-0.801 1.199s0.701 4.197 0.751 5.546c0.050 1.349 0.050 2.448 0.701 2.598s5.606 0 5.606 0 0.851 0 1.902-0.4c4.943-1.716 5.506-1.936 6.069-2.156l-4.367 1.507s0.651-0.4-0.651-0.55c-1.302-0.15-5.707 0.050-5.707 0.050l-0.651-7.794z"
        />
        <path
          fill="#6e5550"
          style="fill: var(--color23, #6e5550)"
          d="M10.068 20.569c-1.302-0.15-5.707 0.050-5.707 0.050l-0.651-7.794s-2.29-0.125-2.853 0c-0.085 0.018-0.143 0.032-0.2 0.048l0.027-0.006c-0.059 0.163-0.067 0.38 0.010 0.67 0.25 0.949 0.701 4.197 0.751 5.546 0.018 0.489 0.050 0.962 0.068 1.335 0.033 0.689 0.020 1.276 0.020 1.276s2.067-0.16 2.403-0.15c1.553 0.047 3.867 0.038 3.867 0.037s0.801 0.1 1.852-0.3c5.916-2.043 6.314-2.198 6.711-2.353l-5.51 1.895c-0.066-0.097-0.275-0.195-0.788-0.254z"
        />
        <path
          fill="#f5aa8a"
          style="fill: var(--color3, #f5aa8a)"
          d="M7.428 14.284s0.135 0.769 0.193 1.173c0.058 0.404 0.096 1.403 0.096 1.403l0.347 0.077 0.097 0.725s-1.156 0.41-1.542 0.006c-0.385-0.404-0.212-3.518-0.212-3.518l1.021 0.135z"
        />
        <path
          fill="#e49e80"
          style="fill: var(--color24, #e49e80)"
          d="M11.406 24.122l0.586 2.217 1.335-0.237-0.489-2.322-1.432 0.342z"
        />
        <path
          fill="#448294"
          style="fill: var(--color25, #448294)"
          d="M6.131 17.902s5.29-0.599 5.912 0.588c0.622 1.186 1.247 5.996 1.132 6.168s-1.745 0.348-1.799 0.164c-0.099-0.337-1.024-3.821-1.283-4.16s-2.3 0.221-3.313 0.256c-1.051 0.038-2.569 0.271-2.944-0.33-0.35-0.561-0.318-2.2-0.318-2.2l2.613-0.485z"
        />
        <path
          fill="#f5aa8a"
          style="fill: var(--color3, #f5aa8a)"
          d="M8.924 25.001l0.277 2.278 1.354-0.043-0.167-2.368-1.464 0.133z"
        />
        <path
          fill="#4c96a6"
          style="fill: var(--color26, #4c96a6)"
          d="M4.481 18.225s5.137 0.361 5.74 1.384c0.682 1.157 0.52 6.022 0.383 6.175s-1.775 0.052-1.803-0.138c-0.052-0.348-0.58-3.721-0.79-4.094s-1.848-0.225-3.080-0.2c-0.541 0.011-1.484 0.005-1.978-0.154-0.466-0.15-0.904-0.468-1.044-0.783-0.27-0.606-0.015-2.224-0.015-2.224l2.587 0.033z"
        />
        <path
          fill="#fd5103"
          style="fill: var(--color1, #fd5103)"
          d="M13.342 25.997s0.932 0.61 1.842 1.152c0.354 0.211 0.678 0.596 0.293 0.905-0.191 0.154-1.225 0.367-1.923 0.052-0.795-0.358-1.478-0.331-1.708-0.6s0.082-1.272 0.082-1.272l1.413-0.237z"
        />
        <path
          fill="#fd5103"
          style="fill: var(--color1, #fd5103)"
          d="M13.566 26.91s-0.663-0.291-0.906-0.627z"
        />
        <path
          fill="#fd5103"
          style="fill: var(--color1, #fd5103)"
          d="M15.507 27.654s-0.187 0.231-0.668 0.285c-0.48 0.054-0.768 0.052-1.191-0.079s-0.655-0.318-1.006-0.397c-0.352-0.080-0.64-0.082-0.801-0.218z"
        />
        <path
          fill="#fd5103"
          style="fill: var(--color1, #fd5103)"
          d="M10.603 27.142s0.769 0.805 1.532 1.539c0.297 0.285 0.525 0.734 0.080 0.948-0.221 0.106-1.277 0.080-1.885-0.385-0.693-0.529-1.364-0.656-1.527-0.97s0.368-1.221 0.368-1.221l1.43 0.089z"
        />
        <path
          fill="#8db1cc"
          style="fill: var(--color27, #8db1cc)"
          d="M10.621 25.433s-0.335 0.163-0.88 0.137c-0.546-0.026-0.984-0.219-0.984-0.219s-0.153 0.295-0.014 0.493c0.138 0.198 0.466 0.305 1 0.363s0.899-0.093 0.988-0.296c0.088-0.202-0.11-0.478-0.11-0.478z"
        />
        <path
          fill="#88a5bd"
          style="fill: var(--color28, #88a5bd)"
          d="M13.185 24.339s-0.293 0.23-0.832 0.319c-0.539 0.089-1.026-0.106-1.026-0.106s-0.069 0.419 0.108 0.584c0.177 0.165 0.519 0.2 1.054 0.145s0.86-0.28 0.904-0.497c0.044-0.217-0.208-0.444-0.208-0.444z"
        />
        <path
          fill="#5f6775"
          style="fill: var(--color29, #5f6775)"
          d="M2.964 18.93c-0.366 0.192-0.977 0.439-1.171 0.568s-0.279-0.375-0.253-0.632c0.026-0.256 0.103-0.461 0.103-0.461s-0.037-0.699-0.018-0.999c0.021-0.325 0.039-0.64 0.039-0.909 0.004-1.643-0.227-4.116 0.274-4.924s1.759-1.038 3.082-1c1.323 0.038 1.99 0.602 2.145 1.192s0.283 1.41 0.283 1.717 0.18 0.743 0.103 0.846c-0.077 0.102-0.539 0.154-0.539 0.154s-0.174 0.985-0.18 1.256c-0.026 1.256-0.027 2.114-0.027 2.114s-1.146 0.229-1.843 0.387c-0.697 0.158-1.317 0.334-1.997 0.691z"
        />
        <path
          fill="#5f6775"
          style="fill: var(--color29, #5f6775)"
          d="M6.754 11.586s0.18 0.641 0.205 1.077c0.026 0.436 0.128 1.487 0.051 1.82z"
        />
        <path
          fill="#5f6775"
          style="fill: var(--color29, #5f6775)"
          d="M1.694 18.533s1.31-0.615 2.466-0.82z"
        />
        <path
          fill="#f5aa8a"
          style="fill: var(--color3, #f5aa8a)"
          d="M5.581 9.962l0.048 0.669s0.041 0.692-0.565 0.769c-0.606 0.078-1.064-0.818-1.064-0.818l-0.002-1.102 1.582 0.481z"
        />
        <path
          fill="#592c30"
          style="fill: var(--color30, #592c30)"
          d="M6.036 7.245s0.546 0.312 0.533 1.058c-0.013 0.746-0.33 0.793-0.584 0.611s-1.035-1.109-1.035-1.109l0.327-0.847 0.759 0.287z"
        />
        <path
          fill="#f5aa8a"
          style="fill: var(--color3, #f5aa8a)"
          d="M6.156 7.702c0.307 0.849 0.27 2.544-0.629 2.647s-1.413-0-1.855-1.397c-0.442-1.398 0.351-1.98 0.712-2.050 0.28-0.055 1.465-0.048 1.773 0.801z"
        />
        <path
          fill="#522c31"
          style="fill: var(--color31, #522c31)"
          d="M4.647 8.854c0.019 0.054 0.070 0.093 0.129 0.093 0.076 0 0.137-0.061 0.137-0.137 0-0.016-0.003-0.031-0.008-0.045l0 0.001c-0.019-0.054-0.070-0.092-0.129-0.092-0.016 0-0.031 0.003-0.045 0.008l0.001-0c-0.054 0.019-0.093 0.069-0.093 0.129 0 0.016 0.003 0.031 0.008 0.045l-0-0.001zM5.829 8.804c0.026 0.076 0.105 0.117 0.177 0.093s0.108-0.106 0.082-0.182c-0.026-0.076-0.105-0.117-0.177-0.093s-0.108 0.106-0.083 0.181z"
        />
        <path
          fill="#d27d73"
          style="fill: var(--color16, #d27d73)"
          d="M5.379 8.523c0.033 0.070 0.059 0.141 0.082 0.212 0.012 0.036 0.021 0.072 0.032 0.108s0.018 0.072 0.027 0.108l-0.029-0.044c0.033 0.019 0.062 0.038 0.091 0.061s0.058 0.045 0.084 0.072c0.013 0.013 0.026 0.029 0.038 0.044 0.012 0.017 0.024 0.033 0.035 0.054 0.011 0.019 0.020 0.044 0.022 0.074 0.003 0.028-0.006 0.066-0.025 0.089l-0.014 0.018-0.004 0.004-0.005 0.004-0 0-0.001 0-0.001 0.001-0.005 0.004-0.021 0.015-0.043 0.028c-0.015 0.009-0.027 0.019-0.045 0.027l-0.051 0.023c-0.028 0.014-0.062 0.027-0.096 0.037l-0.005 0.001c-0.034 0.010-0.068 0.019-0.103 0.024 0.027-0.023 0.053-0.046 0.080-0.068 0.028-0.021 0.052-0.044 0.076-0.064l0.037-0.031c0.013-0.009 0.024-0.023 0.037-0.035l0.036-0.036 0.019-0.017 0.005-0.004 0.001-0.001 0.001-0.001 0-0 0-0-0.004 0.004v-0.001c0-0.001 0-0.002 0.001-0.003l-0 0c0.002-0.001 0-0.003 0-0.003 0.001 0-0.001-0.003-0.002-0.004 0.001-0.001-0.003-0.006-0.004-0.009-0.002-0.005-0.004-0.009-0.007-0.013l0 0c-0.004-0.010-0.014-0.021-0.022-0.031-0.010-0.011-0.019-0.021-0.030-0.032-0.022-0.021-0.045-0.043-0.069-0.063s-0.051-0.040-0.075-0.059l-0.027-0.021-0.002-0.023c-0.004-0.037-0.009-0.074-0.011-0.111s-0.006-0.074-0.006-0.112c-0.001-0.022-0.002-0.049-0.002-0.075 0-0.053 0.003-0.106 0.008-0.158l-0.001 0.007z"
        />
        <path
          fill="#592c30"
          style="fill: var(--color30, #592c30)"
          d="M6.197 8.54l0.016-0.002c0.051-0.006 0.066-0.062 0.025-0.093-0.1-0.076-0.339-0.118-0.44-0.029-0.038 0.033-0.003 0.082 0.036 0.087 0.058 0.008 0.119-0.013 0.179-0.009 0.066 0.005 0.123 0.028 0.187 0.042l-0.012-0.091-0.014 0.009c-0.036 0.022-0.025 0.092 0.023 0.086zM5.049 8.427c-0.046-0.059-0.153-0.061-0.221-0.068-0.112-0.012-0.259 0.010-0.347 0.083-0.018 0.015-0.015 0.045 0 0.061 0.001 0.014 0 0.010 0 0.006l-0.001-0.018c-0.002 0.009 0.001 0.020 0.010 0.024l0.008 0.004c0.021 0.010 0.042 0.001 0.050-0.020l0.006-0.014-0.042 0.032c0.098 0.005 0.187-0.053 0.286-0.053 0.034 0 0.067 0.005 0.101 0.008 0.017 0.002 0.090 0.006 0.088 0.005 0.032 0.026 0.094-0.009 0.064-0.049z"
        />
        <path
          fill="#fff"
          style="fill: var(--color10, #fff)"
          d="M5.638 9.585c-0.054 0.019-0.249 0.030-0.29 0.025-0.206-0.023-0.331-0.255-0.422-0.192s-0.198 0.419 0.133 0.522c0.439 0.136 0.579-0.354 0.579-0.354z"
        />
        <path
          fill="#592c30"
          style="fill: var(--color30, #592c30)"
          d="M6.444 7.178c-0.267-0.26-0.484-0.286-0.484-0.286s-0.255-0.45-0.824-0.583c-0.569-0.133-0.877 0.349-0.877 0.349s-0.501-0.132-0.808 0.283c-0.307 0.415-0.149 1.060 0.328 1.159s0.691-0.433 0.691-0.433 0.58 0.228 0.854 0.166c0.273-0.063 0.47-0.304 0.47-0.304s0.218 0.616 0.64 0.508c0.314-0.080 0.278-0.601 0.011-0.86z"
        />
        <path
          fill="#592c30"
          style="fill: var(--color30, #592c30)"
          d="M3.508 7.294s-0.528 0.327-0.512 0.762c0.016 0.436 0.297 0.657 0.297 0.657s0.295 0.066 0.405 0.267c0.11 0.201 0.264 0.196 0.363 0.090 0.029-0.031 0.022-0.341 0.022-0.341s0.087-0.202 0.076-0.509c-0.011-0.307-0.076-0.69-0.076-0.69l-0.574-0.236z"
        />
        <path
          fill="#f5aa8a"
          style="fill: var(--color3, #f5aa8a)"
          d="M3.853 8.864c-0.071-0.28-0.565-0.416-0.622-0.079s0.221 0.737 0.548 0.772c0.328 0.035 0.145-0.414 0.073-0.694zM10.193 17.459c-0.052-0.235-0.293-0.517-0.497-0.58-0.275-0.084-0.74-0.227-1.018-0.151-0.096 0.026-0.558 0.082-0.726 0.185s-0.025 0.595 0.123 0.746c0.052 0.001 0.106 0.002 0.163 0.003 0.233 0.003 0.643 0.060 0.746 0.071 0.179 0.019 0.368 0.184 0.463 0.017s-0.231-0.28-0.117-0.294c0.058-0.007 0.176 0.002 0.276 0.115 0.097 0.11 0.188 0.215 0.253 0.271 0.159 0.139 0.263-0.123 0.263-0.123s0.122-0.031 0.071-0.261z"
        />
        <path
          fill="#6e5550"
          style="fill: var(--color23, #6e5550)"
          d="M17.872 29.882c0 0.371-1.187 0.507-2.652 0.507s-2.652-0.136-2.652-0.507c0-0.372 1.187-0.673 2.652-0.673s2.652 0.301 2.652 0.673z"
        />
        <path
          fill="#433431"
          style="fill: var(--color21, #433431)"
          d="M14.845 18.017v11.441h0.002c0.008 0.115 0.171 0.208 0.373 0.208s0.366-0.093 0.373-0.208h0.002v-11.441h-0.75z"
        />
        <path
          fill="#957765"
          style="fill: var(--color32, #957765)"
          d="M15.22 17.93h-8.596s0.004 0.259 0.009 0.48c0.003 0.164 0.050 0.267 0.157 0.334 0.081 0.051 0.377 0.131 1.017 0.173 2.016 0.132 6.037 0.056 7.413 0.067 1.377-0.011 5.398 0.064 7.413-0.067 0.64-0.042 0.936-0.122 1.017-0.173 0.107-0.067 0.154-0.17 0.157-0.334 0.005-0.221 0.009-0.48 0.009-0.48h-8.596z"
        />
        <path
          fill="#ae8b76"
          style="fill: var(--color33, #ae8b76)"
          d="M15.22 17.739c-1.82 0.006-8.596 0.053-8.596 0.191s0.781 0.267 8.596 0.267c7.815 0 8.596-0.128 8.596-0.267s-6.776-0.185-8.596-0.191z"
        />
        <path
          fill="#f3f3f3"
          style="fill: var(--color34, #f3f3f3)"
          d="M17.539 17.852c0 0.098-0.571 0.178-1.274 0.178s-1.274-0.080-1.274-0.178c0-0.098 0.571-0.178 1.274-0.178s1.274 0.080 1.274 0.178z"
        />
        <path
          fill="#d7d7d7"
          style="fill: var(--color35, #d7d7d7)"
          d="M16.265 17.942c0.493 0 0.893-0.050 0.893-0.112s-0.4-0.112-0.893-0.112-0.893 0.050-0.893 0.112 0.4 0.112 0.893 0.112z"
        />
        <path
          fill="#fbfbfb"
          style="fill: var(--color36, #fbfbfb)"
          d="M16.265 16.494c-0.637 0-0.975 0.098-0.975 0.098 0 0.229 0.221 0.852 0.364 0.967s0.333 0.182 0.611 0.182c0.278 0 0.468-0.068 0.611-0.182s0.364-0.738 0.364-0.967c-0 0-0.338-0.098-0.975-0.098z"
        />
        <path
          fill="#eee"
          style="fill: var(--color37, #eee)"
          d="M15.312 16.617c0 0.036 0.427 0.064 0.954 0.064s0.954-0.029 0.954-0.064c0-0.036-0.427-0.097-0.954-0.097s-0.954 0.062-0.954 0.097z"
        />
        <path
          fill="#fbfbfb"
          style="fill: var(--color36, #fbfbfb)"
          d="M16.96 17.538c-0.063 0-0.102-0.010-0.106-0.011l0.021-0.091c0.002 0 0.2 0.047 0.424-0.098 0.135-0.088 0.225-0.216 0.234-0.334 0.005-0.067-0.017-0.125-0.064-0.169-0.13-0.121-0.294 0.015-0.296 0.016l-0.056-0.073c0.077-0.065 0.262-0.151 0.411-0.013 0.068 0.063 0.101 0.151 0.093 0.247-0.012 0.147-0.118 0.302-0.276 0.405-0.152 0.099-0.294 0.12-0.385 0.12z"
        />
        <path
          fill="#eee"
          style="fill: var(--color37, #eee)"
          d="M16.265 17.646c-0.517 0-0.789-0.46-0.863-0.566 0.075 0.213 0.174 0.419 0.25 0.48 0.066 0.052 0.12 0.098 0.173 0.144l-0.006-0.005c-0.088 0.020-0.142 0.046-0.142 0.074 0 0.063 0.263 0.114 0.588 0.114s0.587-0.051 0.587-0.114c0-0.028-0.054-0.054-0.142-0.074 0.029-0.025 0.081-0.070 0.167-0.139 0.076-0.061 0.175-0.266 0.25-0.48-0.073 0.106-0.346 0.566-0.863 0.566z"
        />
        <path
          fill="#f3f3f3"
          style="fill: var(--color34, #f3f3f3)"
          d="M10.271 17.903c0 0.098-0.571 0.178-1.274 0.178s-1.274-0.080-1.274-0.178c0-0.098 0.571-0.178 1.274-0.178s1.274 0.080 1.274 0.178z"
        />
        <path
          fill="#d7d7d7"
          style="fill: var(--color35, #d7d7d7)"
          d="M9.89 17.882c0 0.062-0.4 0.112-0.893 0.112s-0.893-0.050-0.893-0.112c0-0.062 0.4-0.112 0.893-0.112s0.893 0.050 0.893 0.112z"
        />
        <path
          fill="#433431"
          style="fill: var(--color21, #433431)"
          d="M22.97 23.107c0.022 0.778 0.082 2.685 0.141 3.335 0.075 0.824 0.488 2.848 0.601 3.26 0.099 0.363 0.188 0.6-0.188 0.562s-0.451-0.112-0.676-0.749c-0.225-0.637-0.543-2.289-0.676-3.148-0.117-0.759-0.188-2.52-0.214-3.26h1.012z"
        />
        <path
          fill="#323d67"
          style="fill: var(--color38, #323d67)"
          d="M21.139 27.816s0.025 0.224-0.012 0.485c-0.030 0.215-0.129 0.446-0.266 0.699-0.125 0.233-0.333 0.381-0.534 0.733-0.155 0.271 0.018 0.571 0.279 0.664 0.485 0.173 1.275-0.338 1.52-0.804 0.238-0.452 0.548-0.692 0.808-0.838s0.447-0.564 0.172-0.885c-0.109-0.127-0.292-0.294-0.493-0.481-0.237-0.221-0.411-0.418-0.411-0.418l-1.063 0.845z"
        />
        <path
          fill="#dba990"
          style="fill: var(--color39, #dba990)"
          d="M21.51 29.023c0.384-0.357 0.586-0.813 0.865-1.125 0.153-0.171 0.262-0.319 0.247-0.5-0.003-0.003-0.007-0.006-0.010-0.009l-0.001-0.001c-0.238-0.221-0.411-0.418-0.411-0.418l-1.063 0.845s0.025 0.224-0.012 0.485c-0.030 0.215-0.129 0.446-0.266 0.699-0.027 0.048-0.053 0.089-0.082 0.128l0.002-0.003c0.095 0.155 0.407 0.196 0.729-0.102z"
        />
        <path
          fill="#212a3f"
          style="fill: var(--color40, #212a3f)"
          d="M18.741 21.458c-0.49 0.006-0.778 0.157-0.856 1.008s1.696 3.833 1.952 4.404c0.256 0.571 0.528 1.202 0.528 1.202s0.671 0.019 1.184-0.274c0.513-0.292 1.018-0.868 1.018-0.868s-1.351-2.708-1.674-3.253c-0.323-0.545-1.013-1.602-1.013-1.602s-0.648-0.622-1.138-0.617z"
        />
        <path
          fill="#43528b"
          style="fill: var(--color41, #43528b)"
          d="M18.697 28.796s-0.023 0.225-0.113 0.472c-0.074 0.204-0.219 0.41-0.405 0.629-0.171 0.202-0.405 0.303-0.675 0.607-0.208 0.233-0.101 0.562 0.135 0.707 0.439 0.27 1.318-0.066 1.654-0.472 0.326-0.393 0.68-0.563 0.964-0.652s0.555-0.46 0.352-0.83c-0.080-0.147-0.225-0.348-0.383-0.573-0.186-0.266-0.315-0.494-0.315-0.494l-1.215 0.606z"
        />
        <path
          fill="#f5aa8a"
          style="fill: var(--color3, #f5aa8a)"
          d="M18.809 30.054c0.45-0.269 0.743-0.674 1.080-0.921 0.185-0.136 0.323-0.258 0.346-0.438l-0.008-0.012c-0.186-0.266-0.315-0.494-0.315-0.494l-1.215 0.606s-0.023 0.225-0.113 0.472c-0.074 0.204-0.219 0.41-0.405 0.629-0.032 0.038-0.067 0.073-0.104 0.106 0.061 0.172 0.358 0.276 0.734 0.051z"
        />
        <path
          fill="#344163"
          style="fill: var(--color42, #344163)"
          d="M17.673 22.080c-0.481-0.096-0.793-0.008-1.046 0.809s0.862 4.101 0.994 4.712c-0.038-0.291 0.054 0.143 0.144 0.577l0.122 0.708s0.653 0.157 1.215-0.023c0.563-0.18 1.176-0.638 1.176-0.638s-0.759-2.929-0.962-3.529c-0.203-0.6-0.658-1.777-0.658-1.777s-0.504-0.743-0.985-0.839z"
        />
        <path
          fill="#433431"
          style="fill: var(--color21, #433431)"
          d="M26.79 27.597c0.075 0.824 0.488 2.848 0.601 3.26 0.099 0.363 0.188 0.599-0.188 0.562s-0.45-0.112-0.676-0.749c-0.225-0.637-0.544-2.288-0.676-3.147-0.15-0.974-0.225-3.597-0.225-3.597h1.014c0 0 0.075 2.848 0.15 3.672zM19.968 28.174c0.075-0.824 0.15-3.672 0.15-3.672h1.014s-0.075 2.623-0.225 3.597c-0.132 0.859-0.451 2.511-0.676 3.148s-0.3 0.712-0.676 0.749c-0.375 0.038-0.287-0.199-0.188-0.562 0.113-0.412 0.526-2.436 0.601-3.26zM17.227 26.788c0.059-0.65 0.118-2.557 0.141-3.335h1.012c-0.026 0.74-0.097 2.501-0.214 3.26-0.132 0.859-0.451 2.511-0.676 3.148s-0.3 0.712-0.676 0.749c-0.375 0.038-0.287-0.199-0.188-0.562 0.113-0.412 0.525-2.436 0.601-3.26z"
        />
        <path
          fill="#563e3e"
          style="fill: var(--color22, #563e3e)"
          d="M26.466 24.608c-0.357 0.249-5.558 0.098-5.558 0.098s-0.851 0-1.902-0.4c-1.051-0.4-1.702-0.65-1.702-0.65s-0.651-0.4 0.651-0.55c1.302-0.15 5.707 0.050 5.707 0.050s1.302 0.144 2.111 0.528c0.809 0.384 1.050 0.674 0.694 0.923z"
        />
        <path
          fill="#344163"
          style="fill: var(--color42, #344163)"
          d="M20.531 20.763s-3.702 0.643-3.803 1.991c-0.076 1.013 0.338 0.624 1.147 0.547s2.24-0.142 3.162 0.055c0.693 0.149 2.683 0.288 2.809-0.576s-0.126-1.729-0.481-2.017c-0.355-0.288-2.835 0-2.835 0z"
        />
        <path
          fill="#5f6775"
          style="fill: var(--color29, #5f6775)"
          d="M25.538 21.676s-0.139-2.072-0.135-2.392c0.008-0.659 0.195-2.292 0.169-3.605-0.035-1.786-0.702-2.178-1.451-2.459s-1.89-0.067-2.397 0.067c-0.506 0.135-1.357 0.914-1.152 2.503s0.128 2.051 0.128 2.871-0.631 2.072-0.495 2.341c0.056 0.112 1.013 1.28 2.329 1.348s3.004-0.674 3.004-0.674z"
        />
        <path
          fill="#f5aa8a"
          style="fill: var(--color3, #f5aa8a)"
          d="M17.711 18.399s-0.382-0.68-1.040-0.81c-0.658-0.13-1.223 0.305-1.226 0.354-0.001 0.011-0.087 0.051-0.102 0.147s0.034 0.125 0.034 0.125-0.143 0.060-0.137 0.175c0.006 0.115 0.080 0.139 0.080 0.139s-0.116 0.194 0.015 0.213c0.113 0.017 0.17-0.030 0.287-0.041 0.147-0.014 0.314-0.001 0.427 0.022 0.2 0.042 0.286 0.293 0.523 0.328 0.384 0.058 0.754 0.065 0.919-0.054s0.22-0.599 0.22-0.599z"
        />
        <path
          fill="#f5aa8a"
          style="fill: var(--color3, #f5aa8a)"
          d="M17.669 18.225l-0.272 0.776s1.068 0.249 2.173 0.147c1.104-0.102 1.793-0.212 2.029-0.718s0.478-2.652 0.411-3.461c-0.068-0.809-0.36-1.205-0.796-1.256s-0.771 0.923-0.848 1.641-0.36 2.102-0.36 2.102-0.925 0.256-1.284 0.359c-0.36 0.102-1.053 0.41-1.053 0.41zM21.981 11.985l-0.125 1.292s0.385 0.179 0.925 0.128c0.539-0.051 0.796-0.359 0.796-0.359l-0.267-1.142-1.329 0.080z"
        />
        <path
          fill="#f5aa8a"
          style="fill: var(--color3, #f5aa8a)"
          d="M20.899 10.904c0.055-0.132 0.078-0.625 0.116-0.811 0.24-1.18 1.499-1.305 2.223-0.967s0.923 1.872 0.645 2.339c-0.278 0.468-1.011 0.804-1.337 0.935s-0.808 0.385-1.318 0.157c-0.272-0.122-0.31-0.829-0.349-0.867-0.087-0.085-0.261-0.189-0.235-0.335 0.115-0.189 0.202-0.318 0.257-0.451z"
        />
        <path
          fill="#481609"
          style="fill: var(--color43, #481609)"
          d="M21.314 10.814c-0.031-0.071-0.113-0.1-0.18-0.063s-0.097 0.127-0.065 0.198c0.031 0.071 0.113 0.099 0.18 0.063s0.097-0.127 0.066-0.198z"
        />
        <path
          fill="#954331"
          style="fill: var(--color44, #954331)"
          d="M21.461 10.644c0.001 0 0.002 0 0.002 0 0.011 0 0.021-0.004 0.028-0.012v0c0.007-0.007 0.011-0.016 0.011-0.026 0-0.003-0-0.007-0.001-0.010l0 0c-0.002-0.009-0.010-0.014-0.013-0.022 0.012 0.036 0.003-0.001-0.010-0.016-0.024-0.029-0.069-0.043-0.103-0.056-0.103-0.039-0.223-0.052-0.33-0.024-0.080 0.021-0.045 0.147 0.034 0.124 0.083-0.024 0.165-0.011 0.247 0.009 0.030 0.007 0.059 0.018 0.089 0.025 0.009 0.002 0.018 0.004 0.026 0.005 0.002 0.001 0.005 0.001 0.008 0.001 0.004 0 0.008-0.001 0.011-0.002l-0 0c0.022-0.007 0.014-0.009-0.022-0.006-0.003-0.012-0.006-0.024-0.010-0.036-0 0.001-0 0.001-0.001 0.002l0-0 0.026-0.026-0.003 0.001c-0.037 0.015-0.033 0.067 0.010 0.070z"
        />
        <path
          fill="#954331"
          style="fill: var(--color44, #954331)"
          d="M24.707 12.893c-0.18-0.359-0.178-0.947-0.125-1.726 0.036-0.528-0.086-0.912-0.168-1.105-0.096-0.735-0.663-1.045-0.995-1.198-0.345-0.16-1.064-0.363-1.942 0.178-0.369 0.228-0.554 0.652-0.453 0.964s0.439 0.391 0.703 0.734c0.264 0.344 0.046 0.598 0.36 0.897 0.052 0.050 0.101 0.101 0.149 0.154l0.003 0.003c-0.016 0.101-0.061 0.307-0.177 0.459-0.159 0.208-0.122 0.552-0.043 0.837s0.238 0.624 0.185 0.858c-0.053 0.234-0.348 0.74-0.117 1.202s0.591 0.769 1.053 0.59c0.462-0.179 0.77-0.41 1.181-0.487s0.924-0.297 1.002-0.795c0.078-0.498-0.436-1.205-0.616-1.564z"
        />
        <path
          fill="#f5aa8a"
          style="fill: var(--color3, #f5aa8a)"
          d="M21.879 11.25s0.131-0.535 0.49-0.228c0.36 0.308-0.051 0.822-0.356 0.805s-0.134-0.577-0.134-0.577z"
        />
        <path
          fill="#fff"
          style="fill: var(--color10, #fff)"
          d="M20.931 11.893s0.195-0.018 0.334-0.077c0.159-0.067 0.267-0.171 0.308-0.102 0.077 0.128 0.077 0.487-0.36 0.487-0.284 0-0.282-0.308-0.282-0.308z"
        />
        <path
          fill="#563e3e"
          style="fill: var(--color22, #563e3e)"
          d="M26.543 24.608c0.651-0.15 0.622-1.152 0.672-2.5s0.5-4.597 0.751-5.546-0.397-1.109-0.801-1.199c-0.368-0.082-2.394 0.055-2.741 0.094s-0.991 0.192-1.194 0.384c-0.266 0.252-0.231 3.384-0.231 3.384l-0.385 4.768s0 0.692 1.348 0.654c1.348-0.038 2.581-0.038 2.581-0.038zM21.92 24.116c0.011 0 0.011-0.016 0-0.016s-0.010 0.016 0 0.016z"
        />
        <path
          fill="#6e5550"
          style="fill: var(--color23, #6e5550)"
          d="M22.628 23.818c0.18 0.012 0.359 0.029 0.539 0.045l0.372-4.601s-0.035-3.132 0.231-3.384c0.204-0.193 0.848-0.346 1.194-0.384 0.266-0.030 1.524-0.117 2.259-0.119 0.019 0.003-0-0.001-0.020-0.006l-0.038-0.007c-0.368-0.082-2.394 0.055-2.741 0.094s-0.991 0.192-1.194 0.384c-0.266 0.252-0.231 3.384-0.231 3.384l-0.371 4.594z"
        />
        <path
          fill="#fbfbfb"
          style="fill: var(--color36, #fbfbfb)"
          d="M8.557 16.391c0.637 0 0.975 0.098 0.975 0.098 0 0.229-0.221 0.852-0.364 0.967s-0.333 0.182-0.611 0.182c-0.278 0-0.468-0.068-0.611-0.182s-0.364-0.738-0.364-0.967c0 0 0.338-0.098 0.975-0.098z"
        />
        <path
          fill="#eee"
          style="fill: var(--color37, #eee)"
          d="M9.51 16.514c0 0.036-0.427 0.064-0.954 0.064s-0.954-0.029-0.954-0.064c0-0.035 0.427-0.097 0.954-0.097s0.954 0.062 0.954 0.097z"
        />
        <path
          fill="#fbfbfb"
          style="fill: var(--color36, #fbfbfb)"
          d="M7.862 17.435c0.063 0 0.102-0.010 0.106-0.011l-0.021-0.091c-0.002 0-0.2 0.047-0.424-0.098-0.135-0.088-0.225-0.216-0.234-0.334-0.005-0.067 0.017-0.125 0.064-0.169 0.13-0.121 0.294 0.015 0.296 0.016l0.056-0.073c-0.077-0.065-0.262-0.151-0.411-0.013-0.068 0.063-0.101 0.151-0.093 0.247 0.012 0.147 0.118 0.302 0.276 0.405 0.152 0.099 0.294 0.12 0.386 0.12z"
        />
        <path
          fill="#eee"
          style="fill: var(--color37, #eee)"
          d="M8.557 17.543c0.517 0 0.789-0.46 0.863-0.566-0.075 0.213-0.174 0.419-0.25 0.48-0.065 0.052-0.12 0.098-0.173 0.144l0.006-0.005c0.088 0.020 0.142 0.046 0.142 0.074 0 0.063-0.263 0.114-0.587 0.114s-0.588-0.051-0.588-0.114c0-0.028 0.054-0.054 0.142-0.074-0.047-0.041-0.102-0.087-0.157-0.131l-0.010-0.008c-0.076-0.061-0.175-0.267-0.25-0.48 0.073 0.107 0.346 0.566 0.863 0.566z"
        />
        <path
          fill="#f5aa8a"
          style="fill: var(--color3, #f5aa8a)"
          d="M3.376 15.93l0.006-2.044-1.703 0.125s-0.037 2.522 0.516 2.983c0 0 0.484-0.037 0.828-0.304s0.354-0.76 0.354-0.76z"
        />
        <path
          fill="#f5aa8a"
          style="fill: var(--color3, #f5aa8a)"
          d="M2.225 17.025c0.64 0.493 3.762 0.681 3.762 0.681l0.128-0.917s-1.851-1.062-2.287-1.236c-0.436-0.174-0.812-0.162-0.812-0.162s-0.49 0.124-0.669 0.4c-0.18 0.276-0.516 0.93-0.122 1.234z"
        />
        <path
          fill="#f5aa8a"
          style="fill: var(--color3, #f5aa8a)"
          d="M7.833 17.581c0.014-0.141-0.108-0.102-0.327-0.093 0.017-0.003 0.050-0.010 0.050-0.010s0.345-0.021 0.354-0.242c0.011-0.273-0.234-0.121-0.501-0.093-0.016 0.002-0.035 0.003-0.053 0.003h-0c0.056-0.008 0.108-0.017 0.155-0.027 0.261-0.057 0.36-0.171 0.329-0.252-0.092-0.242-0.209-0.112-0.476-0.084-0.108 0.011-0.257-0.013-0.396-0.045 0.038-0.027 0.094-0.052 0.165-0.040 0.235 0.039 0.422-0.133 0.345-0.232s-0.474-0.255-0.845-0.115-0.755 0.092-0.94 0.435c-0.16 0.296-0.192 0.599-0.043 0.857 0.109 0.188 0.592 0.334 0.904 0.338 0.179 0.035 0.386 0.070 0.562 0.064 0.275-0.010 0.403-0.028 0.457-0.11s0.013-0.112-0.061-0.142c0.001-0 0.003-0.001 0.005-0.001 0.141-0.016 0.303-0.068 0.317-0.21z"
        />
        <path
          fill="#5f6775"
          style="fill: var(--color29, #5f6775)"
          d="M3.594 12.063s0.177 2.384 0.008 2.66c-0.17 0.276-2.031 0.4-2.232 0.202s0.043-0.397-0.026-1.194c-0.082-0.937 0.234-2.002 0.71-2.351 0.93-0.685 1.564 0.003 1.541 0.682z"
        />
        <path
          fill="#5f6775"
          style="fill: var(--color29, #5f6775)"
          d="M3.555 11.9s0.214 0.25 0.121 0.768c-0.093 0.518-0.245 1.030-0.221 1.301s0.175 0.618 0.098 0.754c-0.082 0.147-0.257 0.147-0.257 0.147z"
        />
        <path
          fill="#5f6775"
          style="fill: var(--color29, #5f6775)"
          d="M3.21 14.168s-0.875-0.258-1.425-0.29z"
        />
      </symbol>
      <symbol id="icon-arrow" viewBox="0 0 32 32">
       <path
         d="M16.724 21.24l10.62-11.147c0.171-0.179 0.276-0.422 0.276-0.69s-0.105-0.511-0.277-0.69l0 0-0.013-0.012c-0.168-0.176-0.404-0.286-0.667-0.286s-0.499 0.11-0.666 0.286l-0 0-10 10.496-9.996-10.496c-0.168-0.176-0.404-0.286-0.667-0.286s-0.499 0.11-0.666 0.286l-0 0-0.012 0.013c-0.171 0.179-0.276 0.422-0.276 0.689s0.105 0.51 0.276 0.69l-0-0 10.62 11.147c0.182 0.191 0.439 0.31 0.724 0.31s0.541-0.119 0.724-0.31l0-0z"
       />
      </symbol>
      <symbol id="icon-VectorMore" viewBox="0 0 52 32">
        <path
        d="M27.762 28.889l23.171-24.319c0.387-0.406 0.602-0.945 0.602-1.505s-0.216-1.1-0.602-1.505l-0.026-0.026c-0.188-0.197-0.413-0.355-0.664-0.462s-0.52-0.163-0.792-0.163c-0.272 0-0.542 0.055-0.792 0.163s-0.476 0.265-0.663 0.462l-21.818 22.9-21.809-22.9c-0.188-0.197-0.413-0.355-0.663-0.462s-0.52-0.163-0.792-0.163c-0.272 0-0.542 0.055-0.792 0.163s-0.476 0.265-0.663 0.462l-0.026 0.026c-0.387 0.406-0.603 0.945-0.603 1.505s0.216 1.1 0.603 1.505l23.171 24.319c0.204 0.214 0.449 0.384 0.72 0.501s0.564 0.176 0.859 0.176c0.295 0 0.588-0.060 0.859-0.176s0.517-0.287 0.72-0.501z"></path>
      </symbol>
      <symbol id="icon-pag-btn-next" viewBox="0 0 32 32">
        <path d="M17.751 16.667l-6.788-6.741 1.939-1.925 8.728 8.667-8.728 8.667-1.939-1.925 6.788-6.741z"></path>
      </symbol>
      <symbol id="icon-pag-btn-prev" viewBox="0 0 32 32">
        <path d="M14.545 16.667l6.788 6.741-1.939 1.925-8.728-8.667 8.728-8.667 1.939 1.925-6.788 6.741z"></path>
      </symbol>
    </defs>
</svg>
