<svg aria-hidden="true" style="position:absolute;width:0;height:0;overflow:hidden"
    xmlns="http://www.w3.org/2000/svg">
    <defs>
        <symbol id="icon-menu" viewBox="0 0 56 32">
            <path d="M1.882.941h52.706a1.882 1.882 0 1 1 0 3.764H1.882a1.882 1.882 0 1 1 0-3.764zM1.882 14.118h52.706a1.882 1.882 0 1 1 0 3.764H1.882a1.882 1.882 0 1 1 0-3.764zM1.882 27.294h52.706a1.882 1.882 0 1 1 0 3.764H1.882a1.882 1.882 0 1 1 0-3.764z"/>
        </symbol>
        <symbol id="icon-close" viewBox="0 0 32 32">
            <path d="m17.254 16 7.369-7.369a.889.889 0 0 0-1.255-1.252l.001-.001L16 14.747 8.632 7.369A.893.893 0 1 0 7.369 8.63l.001.001 7.378 7.37-7.377 7.369a.89.89 0 1 0 1.253 1.254l.001-.001 7.376-7.369 7.37 7.37a.889.889 0 0 0 1.252-1.255l.001.001-7.37-7.37z"/>
        </symbol>
        <symbol id="icon-heart" viewBox="0 0 36 32">
            <path fill="#fd5103" style="fill:var(--color1, #fd5103)" d="m17.684 32-2.565-2.302C6.012 21.555 0 16.186 0 9.592 0 4.219 4.28 0 9.726 0c3.077 0 6.029 1.413 7.958 3.645A10.636 10.636 0 0 1 25.638 0h.003c5.447 0 9.726 4.221 9.726 9.592 0 6.592-6.013 11.963-15.119 20.125l-2.565 2.284z"/>
            <path d="m17.684 28.632-2.075-1.817C8.236 20.386 3.368 16.146 3.368 10.941c0-4.241 3.464-7.572 7.874-7.572 2.491 0 4.881 1.115 6.442 2.877a8.7 8.7 0 0 1 6.441-2.877h.002c4.409 0 7.874 3.331 7.874 7.572 0 5.204-4.867 9.443-12.241 15.887l-2.075 1.804z"/>
        </symbol>
        <symbol id="icon-search" viewBox="0 0 32 32">
            <path fill="#fd5103" style="fill:var(--color1, #fd5103)" d="M13.474 26.947a13.336 13.336 0 0 0 8.276-2.865l-.029.022 7.404 7.404 2.381-2.381-7.404-7.404a13.306 13.306 0 0 0 2.845-8.249C26.947 6.045 20.902 0 13.473 0S-.001 6.045-.001 13.474s6.045 13.474 13.474 13.474zm0-23.579c5.573 0 10.105 4.532 10.105 10.105s-4.532 10.105-10.105 10.105S3.369 19.046 3.369 13.473 7.901 3.368 13.474 3.368z"/>
        </symbol>
        <symbol id="icon-vector" viewBox="0 0 52 32">
            <path d="m27.761 28.887 23.171-24.32c.372-.391.601-.921.601-1.504s-.229-1.113-.602-1.505l.001.001-.029-.029c-.366-.385-.883-.624-1.455-.624s-1.088.239-1.454.623l-.001.001-21.818 22.906L4.366 1.533C4 1.148 3.483.909 2.911.909s-1.088.239-1.454.623l-.001.001-.032.026c-.373.391-.603.921-.603 1.505s.23 1.115.603 1.506l-.001-.001 23.174 24.32a2.178 2.178 0 0 0 3.159.001l.001-.001z"/>
        </symbol>
        <symbol id="icon-chevron-down" viewBox="0 0 32 32">
            <path d="m7.791 12.791 7.543 7.543 7.543-7.543-.943-.943-6.6 6.6-6.6-6.6-.943.943z"/>
            <path d="m7.791 12.792 7.543 7.541 7.543-7.543-.943-.943-6.6 6.6-6.6-6.6-.943.943z"/>
        </symbol>
        <symbol id="icon-light" viewBox="0 0 64 32">
            <path fill="#fff" style="fill:var(--color1, #fff)" d="M16 .483h31.998C56.568.483 63.515 7.43 63.515 16v-.002c0 8.57-6.947 15.517-15.517 15.517H16C7.43 31.515.483 24.568.483 15.998V16C.483 7.43 7.43.483 16 .483z"/>
            <path fill="#fd5103" style="fill:var(--color2, #fd5103)" d="M27.2 16c0 7.069-5.731 12.8-12.8 12.8S1.6 23.069 1.6 16c0-7.069 5.731-12.8 12.8-12.8S27.2 8.931 27.2 16z"/>
            <path fill="none" stroke="#fd5103" style="stroke:var(--color2, #fd5103)" stroke-width=".968" d="M16 .483h31.998C56.568.483 63.515 7.43 63.515 16v-.002c0 8.57-6.947 15.517-15.517 15.517H16C7.43 31.515.483 24.568.483 15.998V16C.483 7.43 7.43.483 16 .483z"/>
        </symbol>
        <symbol id="icon-dark" viewBox="0 0 64 32">
            <path fill="#fd5103" style="fill:var(--color2, #fd5103)" d="M16 .8h32C56.395.8 63.2 7.605 63.2 16S56.395 31.2 48 31.2H16C7.605 31.2.8 24.395.8 16S7.605.8 16 .8z"/>
            <path fill="#fff" style="fill:var(--color1, #fff)" d="M60.8 16c0 7.069-5.731 12.8-12.8 12.8S35.2 23.069 35.2 16c0-7.069 5.731-12.8 12.8-12.8S60.8 8.931 60.8 16z"/>
            <path fill="none" stroke="#fff" style="stroke:var(--color1, #fff)" stroke-width="1.6" d="M16 .8h32C56.395.8 63.2 7.605 63.2 16S56.395 31.2 48 31.2H16C7.605 31.2.8 24.395.8 16S7.605.8 16 .8z"/>
        </symbol>
    </defs>
</svg>